# xmcd
#
# Track frame offsets: 
#        150
#        16676
#        34852
#        53562
#        67084
#        81571
#        100733
#        117203
#        130423
#        143092
#        156422
#        172255
#        186527
#        200285
#
# Disc length: 2888 seconds
#
# Revision: 0
# Processed by: cddbd v1.5.2PL0 Copyright (c) Steve Scherf et al.
# Submitted via: ExactAudioCopy v1.0b3
#
DISCID=ca0b460e
DTITLE=maybebop - Für Euch
DYEAR=2015
DGENRE=A Cappella
TTITLE0=Ein neues Weihnachtslied
TTITLE1=Geburtstag bei Gotts
TTITLE2=Mary's Boy Child
TTITLE3=Es kommt ein Schiff geladen
TTITLE4=Happy Meal
TTITLE5=Adventskalender im September
TTITLE6=Das Programm zu Heiligabend
TTITLE7=Der alte Mann
TTITLE8=Weihnachtswunder
TTITLE9=Joy To The World
TTITLE10=Be Still My Heart (Mit Onair)
TTITLE11=Weise aus dem Morgenland
TTITLE12=Josef, lieber Josef mein (Mit Greg Is Back)
TTITLE13=Wir sagen Euch an den lieben Advent
EXTD=
EXTT0=
EXTT1=
EXTT2=
EXTT3=
EXTT4=
EXTT5=
EXTT6=
EXTT7=
EXTT8=
EXTT9=
EXTT10=
EXTT11=
EXTT12=
EXTT13=
PLAYORDER=
